<?xml version="1.0" standalone="no"?>
<!DOCTYPE svg PUBLIC "-//W3C//DTD SVG 20010904//EN"
 "http://www.w3.org/TR/2001/REC-SVG-20010904/DTD/svg10.dtd">
<svg version="1.0" xmlns="http://www.w3.org/2000/svg"
 width="16.000000pt" height="16.000000pt" viewBox="0 0 16.000000 16.000000"
 preserveAspectRatio="xMidYMid meet">
<metadata>
Created by potrace 1.11, written by Peter Selinger 2001-2013
</metadata>
<g transform="translate(0.000000,16.000000) scale(0.002094,-0.002094)"
fill="#000000" stroke="none">
<path d="M635 5924 c-84 -110 -255 -429 -343 -639 -171 -409 -270 -856 -289
-1305 l-6 -160 809 1 c697 0 801 2 749 14 -398 88 -698 424 -786 879 -26 133
-35 326 -20 446 24 191 84 431 156 625 22 57 33 101 28 106 -9 9 -162 50 -234
63 -33 6 -39 3 -64 -30z"/>
<path d="M6947 5796 c-150 -68 -143 -61 -151 -158 -15 -178 -49 -366 -131
-733 -78 -347 -97 -459 -98 -560 -2 -99 13 -141 59 -172 36 -23 102 -21 159 7
89 43 234 197 350 373 21 32 42 54 46 50 4 -4 33 -71 63 -148 l54 -140 -25
-45 c-116 -203 -296 -369 -465 -430 l-53 -19 443 -1 442 0 0 68 c0 37 -5 129
-10 203 -40 516 -170 990 -396 1442 -55 108 -172 307 -182 307 -4 0 -51 -20
-105 -44z"/>
<path d="M1351 5598 c-11 -35 -34 -117 -51 -184 -137 -549 -37 -958 270 -1098
102 -47 174 -60 317 -59 74 1 171 9 220 18 92 17 273 73 273 84 0 4 -30 36
-66 71 -144 142 -246 282 -472 645 -72 116 -159 248 -193 295 -67 89 -204 238
-250 271 l-27 19 -21 -62z"/>
<path d="M6287 5303 c-36 -43 -78 -95 -94 -116 -26 -35 -31 -37 -68 -32 -175
27 -438 23 -456 -6 -23 -38 -140 -568 -214 -974 -20 -110 -40 -214 -46 -231
-11 -34 -59 -85 -104 -108 -27 -15 22 -16 575 -15 599 0 604 0 558 18 -114 45
-212 151 -249 270 -15 48 -20 93 -20 166 0 150 18 264 140 854 28 135 49 246
48 248 -2 2 -33 -32 -70 -74z"/>
<path d="M5076 4838 c-44 -46 -166 -191 -271 -324 -278 -348 -434 -502 -585
-579 -26 -13 -55 -36 -64 -50 -9 -14 -31 -35 -49 -45 -32 -20 -32 -20 478 -20
348 1 504 4 493 11 -10 5 -30 31 -45 57 -26 43 -28 55 -27 147 1 83 15 166 81
493 44 215 77 392 74 392 -3 0 -42 -37 -85 -82z"/>
<path d="M2661 4012 c-176 -88 -366 -147 -571 -177 -72 -11 35 -13 700 -13
505 1 753 4 695 9 -169 17 -355 77 -593 192 l-107 52 -124 -63z"/>
<path d="M3795 3777 c-26 -59 -317 -663 -1024 -2126 -336 -696 -608 -1268
-603 -1273 16 -16 316 -139 447 -182 251 -84 567 -153 783 -171 l82 -8 1 29
c1 76 327 3591 328 3539 0 -33 -4 -186 -9 -340 -5 -154 -28 -881 -50 -1615
-21 -734 -42 -1399 -46 -1477 l-6 -142 -37 -4 c-20 -2 52 -4 159 -4 107 0 179
2 158 4 l-36 4 -6 92 c-3 51 -24 709 -46 1462 -23 754 -45 1489 -50 1635 -5
146 -9 301 -9 345 1 44 75 -730 166 -1720 90 -990 166 -1802 169 -1804 7 -8
228 20 359 45 303 58 614 157 887 283 l68 31 -34 72 c-31 67 -958 1986 -1399
2896 -102 211 -191 399 -197 417 -19 57 -35 61 -55 12z"/>
<path d="M4822 3618 c-8 -8 -12 -56 -12 -150 0 -113 -3 -138 -14 -138 -22 0
-29 18 -35 89 -7 71 -26 96 -58 75 -25 -16 -30 -141 -8 -184 17 -33 69 -70 98
-70 14 0 17 -9 17 -53 0 -58 12 -77 47 -77 29 0 43 27 43 84 0 37 3 46 18 46
31 0 83 40 98 75 18 43 19 196 2 213 -18 18 -56 14 -68 -7 -5 -11 -10 -53 -10
-93 0 -69 -10 -98 -32 -98 -4 0 -8 59 -8 131 0 72 -5 139 -10 150 -12 21 -50
25 -68 7z"/>
<path d="M2598 3599 c-16 -9 -18 -27 -18 -144 0 -104 -3 -135 -13 -135 -24 0
-37 23 -37 65 0 54 -18 78 -55 73 -37 -4 -50 -37 -41 -102 9 -60 53 -112 107
-126 l39 -11 0 -58 c0 -64 13 -85 52 -79 13 2 27 13 33 26 6 13 19 22 31 22
32 0 87 41 106 80 20 39 25 149 8 181 -7 12 -21 19 -40 19 -39 0 -50 -23 -50
-104 0 -54 -3 -67 -19 -75 -10 -6 -21 -7 -25 -4 -3 3 -6 86 -6 184 0 166 -1
179 -19 189 -24 12 -31 12 -53 -1z"/>
<path d="M784 3439 c-17 -19 -20 -42 -24 -209 l-5 -187 -22 8 c-24 9 -30 25
-36 107 -5 64 -27 92 -73 92 -24 0 -39 -8 -54 -27 -20 -25 -22 -37 -18 -106 4
-66 9 -84 34 -120 37 -52 86 -85 136 -93 l38 -7 0 -77 c0 -64 4 -82 21 -104
31 -39 86 -34 114 11 13 21 28 32 43 33 62 1 152 78 171 147 6 21 11 81 11
134 0 87 -2 97 -23 117 -27 26 -64 28 -94 7 -18 -13 -21 -27 -25 -121 -3 -97
-6 -108 -27 -125 -13 -11 -27 -19 -32 -19 -5 0 -9 112 -9 254 0 241 -1 255
-21 280 -26 33 -77 36 -105 5z"/>
<path d="M6631 3434 c-20 -25 -21 -40 -21 -210 0 -101 -4 -184 -9 -184 -5 0
-19 8 -32 19 -19 16 -24 30 -27 90 -5 79 -21 101 -74 101 -47 0 -68 -34 -68
-112 0 -77 18 -129 58 -171 34 -36 93 -67 127 -67 25 0 25 -1 25 -83 0 -70 3
-87 20 -105 38 -41 104 -25 123 31 4 10 17 17 32 17 38 0 99 35 133 76 38 46
52 101 52 207 0 102 -19 137 -75 137 -24 0 -39 -7 -54 -26 -18 -23 -21 -41
-21 -120 0 -81 -3 -97 -20 -114 -11 -11 -24 -20 -30 -20 -5 0 -10 104 -12 259
-3 238 -5 261 -22 280 -28 31 -79 28 -105 -5z"/>
<path d="M1790 3092 c-69 -34 -70 -42 -70 -454 0 -203 -2 -368 -5 -368 -3 0
-20 6 -38 13 -59 25 -62 35 -67 216 -5 153 -7 169 -28 198 -47 66 -147 65
-196 0 -20 -27 -21 -41 -21 -205 1 -160 3 -183 23 -234 45 -112 165 -208 280
-224 l52 -7 0 -131 c0 -146 11 -181 69 -211 38 -19 64 -19 107 1 55 26 64 55
64 207 l0 134 52 6 c112 14 220 93 274 203 l29 59 3 248 3 248 -34 34 c-18 18
-46 37 -61 41 -36 9 -94 -15 -120 -49 -19 -26 -21 -44 -26 -253 l-5 -224 -30
-29 c-16 -16 -42 -33 -57 -36 l-28 -7 0 380 c0 374 0 380 -22 407 -20 26 -73
55 -100 55 -7 0 -29 -8 -48 -18z"/>
<path d="M5794 2851 c-65 -40 -64 -33 -64 -383 0 -215 -3 -318 -10 -318 -25 0
-72 33 -90 63 -16 26 -20 50 -20 125 0 91 0 93 -34 130 -31 34 -39 37 -86 37
-47 0 -55 -3 -87 -39 l-35 -38 4 -127 c3 -113 7 -133 30 -182 53 -108 165
-191 276 -205 l52 -7 0 -134 c0 -109 3 -140 17 -164 19 -31 68 -59 105 -59 38
0 88 38 106 80 15 35 21 39 62 45 71 10 163 59 214 116 73 81 89 136 94 324 5
184 -4 221 -60 255 -39 24 -78 26 -117 6 -53 -28 -56 -37 -61 -216 -6 -186
-14 -210 -75 -236 -19 -8 -37 -14 -40 -14 -3 0 -5 195 -5 433 0 416 -1 433
-20 465 -20 32 -71 62 -107 62 -10 0 -32 -9 -49 -19z"/>
<path d="M3513 13 c15 -2 39 -2 55 0 15 2 2 4 -28 4 -30 0 -43 -2 -27 -4z"/>
<path d="M4063 13 c15 -2 39 -2 55 0 15 2 2 4 -28 4 -30 0 -43 -2 -27 -4z"/>
</g>
</svg>
